<svg
  width="14"
  height="14"
  viewBox="0 0 14 14"
  fill="none"
  xmlns="http://www.w3.org/2000/svg"
>
  <path
    d="M5.731 5.73079L1.71054 5.7308C1.21717 5.7308 0.817211 6.13075 0.81701 6.62432L0.81701 7.51785C0.81701 8.01121 1.21697 8.41117 1.71054 8.41137L5.731 8.41137L5.731 12.4318C5.731 12.9252 6.13096 13.3252 6.62453 13.3254L7.51805 13.3254C8.01142 13.3254 8.41138 12.9254 8.41158 12.4318L8.41158 8.41137L12.432 8.41137C12.9254 8.41137 13.3254 8.01141 13.3256 7.51785L13.3256 6.62432C13.3256 6.13095 12.9254 5.73079 12.432 5.73079L8.41158 5.73079L8.41158 1.71033C8.41158 1.21696 8.01142 0.816804 7.51805 0.816805L6.62453 0.816805C6.13116 0.816805 5.7312 1.21676 5.731 1.71033L5.731 5.73079Z"
    fill="white"
  />
</svg>
