<svg
  width="14"
  height="14"
  viewBox="0 0 14 14"
  fill="none"
  xmlns="http://www.w3.org/2000/svg"
>
  <path
    fillRule="evenodd"
    clipRule="evenodd"
    d="M11.0813 9.37799L13.8072 12.1039C14.0615 12.3609 14.0615 12.7765 13.8045 13.0335L13.0308 13.8072C12.7765 14.0643 12.3609 14.0643 12.1039 13.8072L9.37799 11.0813C9.25496 10.9583 9.1866 10.7915 9.1866 10.6165V10.1709C8.22146 10.9255 7.00752 11.3739 5.68694 11.3739C2.54545 11.3739 0 8.82843 0 5.68694C0 2.54545 2.54545 0 5.68694 0C8.82843 0 11.3739 2.54545 11.3739 5.68694C11.3739 7.00752 10.9255 8.22146 10.1709 9.1866H10.6165C10.7915 9.1866 10.9583 9.25496 11.0813 9.37799ZM2.18729 5.68694C2.18729 7.62269 3.75393 9.1866 5.68694 9.1866C7.62269 9.1866 9.1866 7.61996 9.1866 5.68694C9.1866 3.7512 7.61996 2.18729 5.68694 2.18729C3.7512 2.18729 2.18729 3.75393 2.18729 5.68694Z"
    fill="#8A8A8F"
  />
</svg>
