<svg
  width="12"
  height="13"
  viewBox="0 0 12 13"
  fill="none"
  xmlns="http://www.w3.org/2000/svg"
>
  <path
    fillRule="evenodd"
    clipRule="evenodd"
    d="M7.92188 0.812504H10.9688C11.1931 0.812504 11.375 0.994389 11.375 1.21875V2.03125C11.375 2.25562 11.1931 2.4375 10.9688 2.4375H0.40625C0.181884 2.4375 0 2.25562 0 2.03125V1.21875C0 0.994389 0.181884 0.812504 0.40625 0.812504H3.45312L3.6918 0.3377C3.79322 0.130292 4.00428 -0.000883055 4.23516 4.47563e-06H7.1373C7.36862 -0.000161423 7.58008 0.13065 7.6832 0.3377L7.92188 0.812504ZM0.8125 11.7813C0.8125 12.4544 1.35815 13 2.03125 13H9.34375C10.0168 13 10.5625 12.4544 10.5625 11.7813V3.25001H0.8125V11.7813ZM7.71875 5.28126C7.71875 5.05689 7.90063 4.87501 8.125 4.87501C8.34937 4.87501 8.53125 5.05689 8.53125 5.28126V10.9688C8.53125 11.1931 8.34937 11.375 8.125 11.375C7.90063 11.375 7.71875 11.1931 7.71875 10.9688V5.28126ZM5.6875 4.87501C5.46313 4.87501 5.28125 5.05689 5.28125 5.28126V10.9688C5.28125 11.1931 5.46313 11.375 5.6875 11.375C5.91187 11.375 6.09375 11.1931 6.09375 10.9688V5.28126C6.09375 5.05689 5.91187 4.87501 5.6875 4.87501ZM2.84375 5.28126C2.84375 5.05689 3.02563 4.87501 3.25 4.87501C3.47437 4.87501 3.65625 5.05689 3.65625 5.28126V10.9688C3.65625 11.1931 3.47437 11.375 3.25 11.375C3.02563 11.375 2.84375 11.1931 2.84375 10.9688V5.28126Z"
    fill="white"
  />
</svg>
