<svg
  width="14"
  height="13"
  viewBox="0 0 14 13"
  fill="none"
  xmlns="http://www.w3.org/2000/svg"
>
  <path
    fillRule="evenodd"
    clipRule="evenodd"
    d="M13.5922 1.45164L12.4174 0.276825C12.0515 -0.0891011 11.4569 -0.0891011 11.0885 0.276825L10.2363 1.12905C10.1448 1.22053 10.1448 1.36979 10.2363 1.46127L12.4078 3.63275C12.4993 3.72423 12.6485 3.72423 12.74 3.63275L13.5922 2.78053C13.9581 2.4122 13.9581 1.81757 13.5922 1.45164ZM9.69222 2.00294L11.8637 4.17442C11.9552 4.2659 11.9552 4.41516 11.8637 4.50664L6.60593 9.76442L4.37185 10.0124C4.07333 10.0461 3.82056 9.79331 3.85426 9.49479L4.10222 7.26071L9.36 2.00294C9.45148 1.91145 9.60074 1.91145 9.69222 2.00294ZM9.24444 10.7852V8.33442C9.24444 8.25738 9.27574 8.18516 9.3287 8.12979L10.2917 7.16682C10.4746 6.98627 10.7852 7.11386 10.7852 7.37145V11.1703C10.7852 11.8083 10.2676 12.3259 9.62963 12.3259H1.15556C0.517593 12.3259 0 11.8083 0 11.1703V2.69627C0 2.05831 0.517593 1.54071 1.15556 1.54071H8.03593C8.29352 1.54071 8.42352 1.85127 8.24056 2.03423L7.27759 2.9972C7.22222 3.05016 7.15 3.08145 7.07296 3.08145H1.54074V10.7852H9.24444Z"
    fill="white"
  />
</svg>
