<svg width="452" height="527" viewBox="0 0 452 527" fill="none" xmlns="http://www.w3.org/2000/svg">
<path d="M400.619 527C403.474 527 405.788 524.686 405.788 521.832C405.788 518.978 403.474 516.665 400.619 516.665C397.764 516.665 395.45 518.978 395.45 521.832C395.45 524.686 397.764 527 400.619 527Z" fill="white"/>
<path d="M296.144 107.203C296.867 107.926 297.788 108.417 298.791 108.616C299.793 108.815 300.832 108.713 301.777 108.321C302.721 107.93 303.528 107.268 304.095 106.418C304.663 105.568 304.966 104.569 304.966 103.547C304.966 102.526 304.663 101.527 304.095 100.677C303.528 99.8271 302.721 99.1648 301.777 98.7735C300.832 98.3822 299.793 98.2796 298.791 98.4786C297.788 98.6776 296.867 99.1693 296.144 99.8915C295.661 100.37 295.276 100.939 295.014 101.566C294.752 102.194 294.617 102.867 294.617 103.547C294.617 104.227 294.752 104.901 295.014 105.528C295.276 106.156 295.661 106.725 296.144 107.203V107.203Z" fill="white"/>
<path d="M376.315 184.527C379.169 184.527 381.483 182.213 381.483 179.359C381.483 176.505 379.169 174.192 376.315 174.192C373.46 174.192 371.146 176.505 371.146 179.359C371.146 182.213 373.46 184.527 376.315 184.527Z" fill="white"/>
<path d="M423.054 309.267C425.908 309.267 428.222 306.954 428.222 304.1C428.222 301.246 425.908 298.932 423.054 298.932C420.199 298.932 417.885 301.246 417.885 304.1C417.885 306.954 420.199 309.267 423.054 309.267Z" fill="white"/>
<path d="M368.067 10.3355C370.921 10.3355 373.235 8.02181 373.235 5.16775C373.235 2.31368 370.921 0 368.067 0C365.212 0 362.898 2.31368 362.898 5.16775C362.898 8.02181 365.212 10.3355 368.067 10.3355Z" fill="white"/>
<path d="M142.869 61.1058C143.892 61.1058 144.891 60.8027 145.741 60.2348C146.591 59.667 147.253 58.8599 147.645 57.9156C148.036 56.9713 148.138 55.9323 147.939 54.9298C147.739 53.9274 147.247 53.0066 146.524 52.2839C145.801 51.5611 144.88 51.069 143.878 50.8696C142.875 50.6702 141.836 50.7725 140.891 51.1636C139.947 51.5548 139.14 52.2171 138.572 53.067C138.004 53.9168 137.701 54.9159 137.701 55.938C137.701 57.3086 138.245 58.623 139.215 59.5922C140.184 60.5613 141.499 61.1058 142.869 61.1058V61.1058Z" fill="white"/>
<path d="M119.555 100.056C120.578 100.056 121.577 99.753 122.427 99.1852C123.277 98.6173 123.94 97.8102 124.331 96.8659C124.722 95.9217 124.824 94.8826 124.625 93.8802C124.425 92.8777 123.933 91.9569 123.21 91.2342C122.487 90.5115 121.566 90.0193 120.564 89.8199C119.561 89.6205 118.522 89.7228 117.577 90.114C116.633 90.5051 115.826 91.1675 115.258 92.0173C114.69 92.8671 114.387 93.8663 114.387 94.8883C114.387 96.2589 114.931 97.5733 115.901 98.5425C116.87 99.5116 118.185 100.056 119.555 100.056V100.056Z" fill="white"/>
<path d="M155.709 511.112C156.731 511.112 157.73 510.809 158.58 510.241C159.43 509.673 160.093 508.866 160.484 507.922C160.875 506.978 160.978 505.938 160.778 504.936C160.579 503.934 160.086 503.013 159.364 502.29C158.641 501.567 157.72 501.075 156.717 500.876C155.714 500.676 154.675 500.779 153.731 501.17C152.786 501.561 151.979 502.223 151.411 503.073C150.843 503.923 150.54 504.922 150.54 505.944C150.54 507.315 151.085 508.629 152.054 509.598C153.023 510.567 154.338 511.112 155.709 511.112V511.112Z" fill="white"/>
<path d="M236.374 114.79C237.097 114.067 237.588 113.146 237.787 112.144C237.986 111.142 237.884 110.103 237.492 109.159C237.101 108.215 236.439 107.408 235.589 106.84C234.739 106.273 233.74 105.97 232.718 105.97C231.696 105.97 230.696 106.273 229.847 106.84C228.997 107.408 228.334 108.215 227.943 109.159C227.551 110.103 227.449 111.142 227.648 112.144C227.847 113.146 228.339 114.067 229.061 114.79C230.034 115.753 231.348 116.294 232.718 116.294C234.087 116.294 235.401 115.753 236.374 114.79V114.79Z" fill="white"/>
<path d="M222.078 516.005C222.801 516.727 223.722 517.219 224.724 517.418C225.727 517.617 226.766 517.514 227.71 517.123C228.654 516.732 229.461 516.069 230.029 515.22C230.596 514.37 230.899 513.371 230.899 512.349C230.899 511.327 230.596 510.328 230.029 509.478C229.461 508.629 228.654 507.966 227.71 507.575C226.766 507.184 225.727 507.081 224.724 507.28C223.722 507.479 222.801 507.971 222.078 508.693C221.59 509.169 221.203 509.738 220.939 510.366C220.675 510.994 220.539 511.668 220.539 512.349C220.539 513.03 220.675 513.704 220.939 514.332C221.203 514.96 221.59 515.529 222.078 516.005V516.005Z" fill="white"/>
<path d="M289.958 404.926C292.813 404.926 295.127 402.612 295.127 399.758C295.127 396.904 292.813 394.59 289.958 394.59C287.104 394.59 284.79 396.904 284.79 399.758C284.79 402.612 287.104 404.926 289.958 404.926Z" fill="white"/>
<path d="M200.138 202.559C201.16 202.559 202.16 202.256 203.01 201.688C203.86 201.12 204.522 200.313 204.913 199.369C205.305 198.425 205.407 197.386 205.207 196.383C205.008 195.381 204.516 194.46 203.793 193.737C203.07 193.015 202.149 192.522 201.146 192.323C200.144 192.124 199.104 192.226 198.16 192.617C197.216 193.008 196.408 193.671 195.84 194.52C195.272 195.37 194.969 196.369 194.969 197.391C194.969 198.762 195.514 200.076 196.483 201.046C197.453 202.015 198.767 202.559 200.138 202.559V202.559Z" fill="white"/>
<path d="M229.831 361.605C230.553 360.882 231.045 359.961 231.244 358.959C231.443 357.956 231.34 356.918 230.949 355.974C230.558 355.03 229.895 354.223 229.045 353.655C228.195 353.088 227.196 352.785 226.174 352.785C225.152 352.785 224.153 353.088 223.303 353.655C222.453 354.223 221.791 355.03 221.399 355.974C221.008 356.918 220.905 357.956 221.104 358.959C221.303 359.961 221.795 360.882 222.518 361.605C223.491 362.568 224.805 363.109 226.174 363.109C227.544 363.109 228.858 362.568 229.831 361.605V361.605Z" fill="white"/>
<path d="M400.866 523.206H179.601L96.4335 440.055H-289.957L-355.638 374.414H-989V371.665H-354.483L-288.802 437.306H97.5607L180.728 520.458H400.866V523.206Z" fill="white"/>
<path d="M-566.456 206.517H-989V203.768H-567.611L-505.751 141.92H-72.7325L25.5559 43.6507H241.845L300.983 102.777L299.031 104.729L240.691 46.3995H26.7106L-71.5777 144.669H-504.596L-566.456 206.517Z" fill="white"/>
<path d="M-428.99 234.005H-989V231.256H-430.145L-373.784 174.906H-31.4926L37.9279 105.499H236.347L308.846 177.985H376.59V180.733H307.719L235.192 108.248H39.0826L-30.3378 177.655H-372.629L-428.99 234.005Z" fill="white"/>
<path d="M423.328 305.474H317.672L265.435 253.247H130.718L86.7285 209.266H-324.516L-382.251 266.991H-989V264.242H-383.406L-325.67 206.517H87.8832L131.872 250.498H266.589L318.827 302.725H423.328V305.474Z" fill="white"/>
<path d="M516.805 462.156H229.693L155.462 387.938H-204.7L-256.937 335.711H-989V332.962H-255.782L-203.545 385.189H156.616L230.848 459.407H516.805V462.156Z" fill="white"/>
<path d="M-596.699 176.28H-989V173.532H-597.853L-519.498 95.1907H-80.9804L10.4347 3.79309H368.342V6.54189H11.5894L-79.8256 97.9395H-518.343L-596.699 176.28Z" fill="white"/>
<path d="M483.814 367.652H307.719L237.941 297.915H113.314L68.6379 342.583H-123.595L-168.959 297.227H-989V294.479H-167.804L-122.44 339.834H67.4832L112.16 295.166H239.096L308.846 364.903H483.814V367.652Z" fill="white"/>
<path d="M-613.855 201.735H-734.165V198.986H-615.009L-576.051 160.063H-390.472L-340.297 109.897H-154.03L-98.6861 54.5637H143.144V57.3125H-97.5589L-152.903 112.646H-339.142L-389.317 162.811H-574.897L-613.855 201.735Z" fill="white"/>
<path d="M-571.24 225.567H-734.165V222.818H-572.395L-533.327 183.757H-359.762L-324.653 148.655H-148.999L-93.8473 93.5416H119.775V96.2904H-92.72L-147.844 151.404H-323.526L-358.635 186.506H-532.172L-571.24 225.567Z" fill="white"/>
<path d="M155.984 507.208H41.7495L2.68151 468.148H-339.829L-373.976 434.008H-580.643L-615.009 399.648H-734.165V396.899H-613.855L-579.488 431.259H-372.821L-338.702 465.399H3.80874L42.8766 504.46H155.984V507.208Z" fill="white"/>
<path d="M-541.905 257.398H-734.165V254.649H-543.059L-503.662 215.258H-313.958L-275.908 177.243H-101.326L-72.2377 148.133H193.759L231.92 109.979L233.872 111.931L194.887 150.882H-71.1105L-100.198 179.991H-274.78L-312.804 218.007H-502.507L-541.905 257.398Z" fill="white"/>
<path d="M224.937 513.531L191.918 480.518H43.9213L8.64751 445.251H-340.517L-381.757 404.019H-568.711L-598.046 374.689H-734.165V371.94H-596.891L-567.583 401.27H-380.629L-339.39 442.502H9.77475L45.0485 477.769H193.072L226.889 511.579L224.937 513.531Z" fill="white"/>
<path d="M169.236 468.835H58.3553L1.30684 411.798H-331.829L-357.947 385.684H-538.468L-574.209 349.95H-734.165V347.201H-573.082L-537.341 382.935H-356.793L-330.674 409.049H2.43408L59.4826 466.087H168.108L235.797 398.411H290.233V401.16H236.952L169.236 468.835Z" fill="white"/>
<path d="M-248.662 281.23H-734.165V278.481H-249.789L-218.639 247.337H-28.0285L23.3014 196.017H200.413V198.766H24.4286L-26.8738 250.086H-217.512L-248.662 281.23Z" fill="white"/>
<path d="M171.078 415.014H89.7526L19.6448 344.919H-33.3072L-78.2036 389.807H-297.462L-326.77 360.478H-499.07L-533.904 325.678H-734.165V322.929H-532.749L-497.916 357.729H-325.643L-296.308 387.058H-79.3309L-34.4344 342.171H20.772L90.8798 412.265H169.923L225.404 356.794L227.329 358.746L171.078 415.014Z" fill="white"/>
<path d="M149.523 337.58H73.2566L34.7661 299.097H-218.887L-248.194 328.427H-469.295L-493.104 304.594H-734.165V301.846H-491.977L-468.14 325.678H-249.349L-220.014 296.348H35.8933L74.3839 334.831H148.396L205.004 278.233L206.956 280.185L149.523 337.58Z" fill="white"/>
<path d="M209.431 282.962C210.147 282.242 210.635 281.326 210.832 280.33C211.028 279.333 210.925 278.301 210.536 277.363C210.146 276.424 209.487 275.623 208.642 275.059C207.797 274.495 206.804 274.194 205.788 274.194C204.772 274.194 203.779 274.495 202.934 275.059C202.089 275.623 201.43 276.424 201.04 277.363C200.65 278.301 200.547 279.333 200.744 280.33C200.94 281.326 201.428 282.242 202.145 282.962C202.621 283.445 203.188 283.828 203.813 284.09C204.439 284.352 205.11 284.486 205.788 284.486C206.466 284.486 207.137 284.352 207.762 284.09C208.388 283.828 208.955 283.445 209.431 282.962V282.962Z" fill="white"/>
</svg>
