<svg width="218" height="241" viewBox="0 0 218 241" fill="none" xmlns="http://www.w3.org/2000/svg">
<mask id="mask0_3_482" style="mask-type:alpha" maskUnits="userSpaceOnUse" x="0" y="0" width="218" height="623">
<path d="M217.232 49.9099C217.232 48.7332 216.278 47.7794 215.102 47.7794C213.925 47.7794 212.972 48.7332 212.972 49.9099C212.972 51.0866 213.925 52.0405 215.102 52.0405C216.278 52.0405 217.232 51.0866 217.232 49.9099Z" fill="white"/>
<path d="M44.1896 92.9747C44.4874 92.6767 44.69 92.297 44.7721 91.8838C44.8541 91.4706 44.8118 91.0423 44.6505 90.6531C44.4892 90.2639 44.2162 89.9313 43.8659 89.6973C43.5157 89.4633 43.1039 89.3384 42.6827 89.3384C42.2614 89.3384 41.8497 89.4633 41.4994 89.6973C41.1492 89.9313 40.8761 90.2639 40.7148 90.6531C40.5535 91.0423 40.5112 91.4706 40.5933 91.8838C40.6753 92.297 40.878 92.6767 41.1757 92.9747C41.3727 93.1742 41.6074 93.3325 41.8661 93.4406C42.1248 93.5486 42.4023 93.6042 42.6827 93.6042C42.963 93.6042 43.2406 93.5486 43.4992 93.4406C43.7579 93.3325 43.9926 93.1742 44.1896 92.9747Z" fill="white"/>
<path d="M76.0628 59.9281C76.0628 58.7514 75.1091 57.7975 73.9327 57.7975C72.7562 57.7975 71.8025 58.7514 71.8025 59.9281C71.8025 61.1048 72.7562 62.0587 73.9327 62.0587C75.1091 62.0587 76.0628 61.1048 76.0628 59.9281Z" fill="white"/>
<path d="M127.482 40.6625C127.482 39.4858 126.528 38.5319 125.351 38.5319C124.175 38.5319 123.221 39.4858 123.221 40.6625C123.221 41.8392 124.175 42.7931 125.351 42.7931C126.528 42.7931 127.482 41.8392 127.482 40.6625Z" fill="white"/>
<path d="M192.066 2.13071C192.066 0.95403 191.113 0.0001348 189.936 0.000134852C188.76 0.000134903 187.806 0.95403 187.806 2.13071C187.806 3.3074 188.76 4.26129 189.936 4.26129C191.113 4.26129 192.066 3.3074 192.066 2.13071Z" fill="white"/>
<path d="M4.26034 63.328C4.26034 62.1513 3.30663 61.1974 2.13017 61.1974C0.953709 61.1974 -1.44566e-07 62.1513 -9.31313e-08 63.328C-4.16964e-08 64.5047 0.95371 65.4586 2.13017 65.4586C3.30663 65.4586 4.26034 64.5047 4.26034 63.328Z" fill="white"/>
<path d="M153.112 15.7301C153.112 14.5534 152.158 13.5995 150.981 13.5995C149.805 13.5995 148.851 14.5534 148.851 15.7301C148.851 16.9068 149.805 17.8607 150.981 17.8607C152.158 17.8607 153.112 16.9068 153.112 15.7301Z" fill="white"/>
<path d="M25.1881 156.155C25.1881 155.734 25.0631 155.322 24.8291 154.972C24.595 154.621 24.2623 154.348 23.8731 154.187C23.4838 154.026 23.0555 153.983 22.6423 154.066C22.2291 154.148 21.8496 154.351 21.5516 154.649C21.2537 154.947 21.0509 155.326 20.9687 155.74C20.8865 156.153 20.9287 156.581 21.0899 156.971C21.2511 157.36 21.5241 157.693 21.8744 157.927C22.2248 158.161 22.6366 158.286 23.0579 158.286C23.6229 158.286 24.1647 158.061 24.5642 157.662C24.9636 157.262 25.1881 156.72 25.1881 156.155Z" fill="white"/>
<path d="M41.2433 165.766C41.2433 165.344 41.1183 164.932 40.8843 164.582C40.6502 164.232 40.3175 163.958 39.9283 163.797C39.539 163.636 39.1107 163.594 38.6975 163.676C38.2843 163.758 37.9047 163.961 37.6068 164.259C37.3089 164.557 37.106 164.937 37.0238 165.35C36.9416 165.763 36.9838 166.192 37.1451 166.581C37.3063 166.97 37.5793 167.303 37.9296 167.537C38.2799 167.771 38.6918 167.896 39.1131 167.896C39.678 167.896 40.2199 167.672 40.6193 167.272C41.0188 166.873 41.2433 166.331 41.2433 165.766Z" fill="white"/>
<path d="M210.683 150.863C210.683 150.442 210.558 150.03 210.324 149.68C210.09 149.329 209.757 149.056 209.368 148.895C208.978 148.734 208.55 148.691 208.137 148.774C207.724 148.856 207.344 149.059 207.046 149.357C206.748 149.655 206.545 150.034 206.463 150.448C206.381 150.861 206.423 151.289 206.585 151.679C206.746 152.068 207.019 152.401 207.369 152.635C207.719 152.869 208.131 152.994 208.553 152.994C209.117 152.994 209.659 152.769 210.059 152.37C210.458 151.97 210.683 151.428 210.683 150.863Z" fill="white"/>
<path d="M47.3169 117.612C47.0189 117.315 46.6393 117.112 46.2261 117.03C45.813 116.948 45.3848 116.99 44.9957 117.151C44.6065 117.313 44.274 117.586 44.04 117.936C43.806 118.287 43.6812 118.698 43.6812 119.12C43.6812 119.541 43.806 119.953 44.04 120.303C44.274 120.653 44.6065 120.927 44.9957 121.088C45.3848 121.249 45.813 121.292 46.2261 121.209C46.6393 121.127 47.0189 120.925 47.3169 120.627C47.714 120.226 47.9368 119.684 47.9368 119.12C47.9368 118.555 47.714 118.013 47.3169 117.612Z" fill="white"/>
<path d="M212.699 123.506C212.997 123.208 213.2 122.828 213.282 122.415C213.364 122.002 213.322 121.573 213.16 121.184C212.999 120.795 212.726 120.462 212.376 120.228C212.025 119.994 211.614 119.869 211.192 119.869C210.771 119.869 210.359 119.994 210.009 120.228C209.659 120.462 209.386 120.795 209.225 121.184C209.063 121.573 209.021 122.002 209.103 122.415C209.185 122.828 209.388 123.208 209.685 123.506C209.882 123.706 210.116 123.866 210.375 123.975C210.634 124.084 210.912 124.14 211.192 124.14C211.473 124.14 211.751 124.084 212.01 123.975C212.269 123.866 212.503 123.706 212.699 123.506Z" fill="white"/>
<path d="M166.912 95.5248C166.912 94.3481 165.959 93.3942 164.782 93.3942C163.606 93.3942 162.652 94.3481 162.652 95.5248C162.652 96.7014 163.606 97.6553 164.782 97.6553C165.959 97.6553 166.912 96.7014 166.912 95.5248Z" fill="white"/>
<path d="M83.4957 132.549C83.4957 132.128 83.3708 131.716 83.1367 131.365C82.9026 131.015 82.5699 130.742 82.1807 130.581C81.7915 130.419 81.3632 130.377 80.9499 130.46C80.5367 130.542 80.1572 130.745 79.8593 131.043C79.5614 131.341 79.3585 131.72 79.2763 132.134C79.1941 132.547 79.2363 132.975 79.3975 133.365C79.5587 133.754 79.8318 134.087 80.1821 134.321C80.5324 134.555 80.9442 134.68 81.3655 134.68C81.9305 134.68 82.4723 134.455 82.8718 134.056C83.2713 133.656 83.4957 133.114 83.4957 132.549Z" fill="white"/>
<path d="M149.055 120.31C148.757 120.012 148.378 119.809 147.965 119.727C147.552 119.645 147.123 119.687 146.734 119.849C146.345 120.01 146.013 120.283 145.779 120.634C145.545 120.984 145.42 121.396 145.42 121.817C145.42 122.238 145.545 122.65 145.779 123C146.013 123.351 146.345 123.624 146.734 123.785C147.123 123.947 147.552 123.989 147.965 123.907C148.378 123.825 148.757 123.622 149.055 123.324C149.453 122.923 149.675 122.382 149.675 121.817C149.675 121.252 149.453 120.711 149.055 120.31Z" fill="white"/>
<path d="M215.668 49.808L215.668 141.015L181.393 175.297L181.393 334.569L154.335 361.643L154.335 622.718L153.202 622.718L153.202 361.167L180.26 334.093L180.26 174.832L214.535 140.55L214.535 49.808L215.668 49.808Z" fill="white"/>
<path d="M85.1273 448.543L85.1273 622.718L83.9942 622.718L83.9942 449.019L58.5001 423.52L58.5001 245.028L17.9929 204.513L17.9929 115.357L42.3652 90.9803L43.1697 91.7849L19.126 115.833L19.126 204.037L59.6332 244.552L59.6332 423.044L85.1273 448.543Z" fill="white"/>
<path d="M96.458 391.879L96.458 622.718L95.325 622.718L95.325 392.355L72.097 369.122L72.097 228.028L43.487 199.413L43.487 117.624L73.3661 87.739L73.3661 59.8149L74.4991 59.8149L74.4991 88.2037L44.6201 118.1L44.6201 198.937L73.2301 227.552L73.2301 368.646L96.458 391.879Z" fill="white"/>
<path d="M125.917 40.549L125.917 84.1012L104.389 105.634L104.389 161.165L86.26 179.297L86.26 348.814L110.054 372.613L110.054 622.718L108.921 622.718L108.921 373.089L85.1269 349.29L85.1269 178.821L103.256 160.689L103.256 105.158L124.784 83.6252L124.784 40.549L125.917 40.549Z" fill="white"/>
<path d="M190.503 2.01733L190.503 120.366L159.91 150.965L159.91 299.425L138.381 320.958L138.381 622.718L137.248 622.718L137.248 320.482L158.777 298.949L158.777 150.489L189.369 119.89L189.369 2.01733L190.503 2.01733Z" fill="white"/>
<path d="M72.6636 461.009L72.6636 622.717L71.5305 622.717L71.5305 461.485L39.238 429.186L39.238 248.427L1.56346 210.745L1.56345 63.2143L2.69652 63.2143L2.69653 210.269L40.3711 247.951L40.3711 428.71L72.6636 461.009Z" fill="white"/>
<path d="M151.548 15.6166L151.548 88.2036L122.802 116.966L122.802 168.338L141.214 186.754L141.214 265.993L122.518 284.693L122.518 622.718L121.385 622.718L121.385 284.217L140.081 265.517L140.081 187.23L121.669 168.814L121.668 116.49L150.414 87.739L150.414 15.6166L151.548 15.6166Z" fill="white"/>
<path d="M83.1557 468.081L83.1557 517.674L82.0227 517.674L82.0227 468.557L65.9784 452.498L65.9784 376.002L45.2999 355.319L45.2999 278.539L22.4912 255.726L22.4912 156.042L23.6243 156.042L23.6243 255.261L46.433 278.074L46.433 354.843L67.1115 375.526L67.1115 452.022L83.1557 468.081Z" fill="white"/>
<path d="M92.9797 450.515L92.9797 517.674L91.8466 517.674L91.8466 450.991L75.7457 434.887L75.7457 363.343L61.2764 348.871L61.2764 276.465L38.5583 253.731L38.5583 165.675L39.6914 165.675L39.6914 253.267L62.4095 275.989L62.4095 348.406L76.8788 362.878L76.8788 434.411L92.9797 450.515Z" fill="white"/>
<path d="M209.073 150.75L209.073 197.838L192.972 213.942L192.972 355.126L178.9 369.202L178.9 454.391L164.736 468.557L164.736 517.674L163.603 517.674L163.603 468.081L177.767 453.915L177.767 368.726L191.839 354.662L191.839 213.477L207.94 197.373L207.94 150.75L209.073 150.75Z" fill="white"/>
<path d="M106.1 438.423L106.1 517.674L104.967 517.674L104.967 438.899L88.73 422.659L88.73 344.462L73.0597 328.778L73.0597 256.814L61.0605 244.824L61.0605 135.178L45.3335 119.448L46.138 118.644L62.1936 134.714L62.1936 244.359L74.1928 256.349L74.1928 328.313L89.8631 343.986L89.8631 422.183L106.1 438.423Z" fill="white"/>
<path d="M211.68 122.327L198.072 135.938L198.072 196.942L183.534 211.483L183.534 355.41L166.538 372.409L166.538 449.472L154.448 461.565L154.448 517.674L153.315 517.674L153.315 461.089L165.405 449.008L165.405 371.944L182.401 354.945L182.401 211.018L196.939 196.478L196.939 135.462L210.875 121.522L211.68 122.327Z" fill="white"/>
<path d="M193.256 145.287L193.256 190.993L169.745 214.508L169.745 351.829L158.981 362.595L158.981 437.006L144.251 451.739L144.251 517.674L143.118 517.674L143.118 451.274L157.848 436.542L157.848 362.119L168.612 351.353L168.612 214.044L192.123 190.528L192.123 145.752L164.227 117.85L164.227 95.4114L165.36 95.4114L165.36 117.374L193.256 145.287Z" fill="white"/>
<path d="M115.924 317.547L115.924 517.674L114.791 517.674L114.791 318.011L101.953 305.171L101.953 226.601L80.7988 205.442L80.7988 132.436L81.9319 132.436L81.9319 204.977L103.086 226.125L103.086 304.707L115.924 317.547Z" fill="white"/>
<path d="M171.071 144.528L171.071 178.051L142.178 206.949L142.178 228.776L160.681 247.283L160.681 337.662L148.591 349.743L148.591 420.766L134.246 435.125L134.246 517.674L133.113 517.674L133.113 434.649L147.458 420.29L147.458 349.279L159.548 337.186L159.548 247.748L141.045 229.241L141.045 206.485L169.938 177.586L169.938 145.004L147.072 122.134L147.877 121.341L171.071 144.528Z" fill="white"/>
<path d="M139.152 153.413L139.152 184.85L123.289 200.716L123.289 305.273L135.379 317.354L135.379 408.493L125.555 418.307L125.555 517.674L124.422 517.674L124.422 417.842L134.246 408.017L134.246 317.83L122.156 305.738L122.156 200.252L138.019 184.386L138.019 153.878L114.689 130.543L115.494 129.739L139.152 153.413Z" fill="white"/>
<path d="M116.638 128.719C116.341 128.423 115.964 128.222 115.553 128.141C115.142 128.06 114.717 128.102 114.33 128.263C113.943 128.424 113.613 128.695 113.38 129.044C113.148 129.392 113.024 129.801 113.024 130.22C113.024 130.639 113.148 131.048 113.38 131.397C113.613 131.745 113.943 132.017 114.33 132.177C114.717 132.338 115.142 132.38 115.553 132.299C115.964 132.218 116.341 132.017 116.638 131.722C116.837 131.526 116.995 131.292 117.103 131.034C117.211 130.776 117.266 130.5 117.266 130.22C117.266 129.941 117.211 129.664 117.103 129.406C116.995 129.148 116.837 128.915 116.638 128.719Z" fill="white"/>
</mask>
<g mask="url(#mask0_3_482)">
<rect x="-11.7681" y="248" width="270" height="241" transform="rotate(-90 -11.7681 248)" fill="#DD3A21"/>
</g>
</svg>
