<svg width="16" height="15" viewBox="0 0 16 15" fill="none" xmlns="http://www.w3.org/2000/svg">
<path d="M3.17733 2.60098C2.89132 2.60072 2.60806 2.65071 2.34376 2.74808C2.07947 2.84546 1.83932 2.9883 1.63708 3.16844C1.43484 3.34858 1.27447 3.56248 1.16515 3.7979C1.05583 4.03331 0.999713 4.28562 1 4.54038C1 5.9946 3.17733 8.14175 3.17733 8.14175C3.17733 8.14175 5.35466 5.9946 5.35466 4.54038C5.35495 4.28562 5.29883 4.03331 5.18951 3.7979C5.08019 3.56248 4.91982 3.34858 4.71758 3.16844C4.51534 2.9883 4.2752 2.84546 4.0109 2.74808C3.7466 2.65071 3.46334 2.60072 3.17733 2.60098ZM3.17733 5.23265C3.02361 5.23265 2.87335 5.19205 2.74554 5.11598C2.61773 5.03991 2.51812 4.9318 2.45929 4.8053C2.40047 4.6788 2.38508 4.53961 2.41506 4.40532C2.44505 4.27104 2.51907 4.14769 2.62777 4.05087C2.73646 3.95405 2.87494 3.88812 3.02571 3.86141C3.17647 3.8347 3.33274 3.84841 3.47475 3.9008C3.61677 3.9532 3.73815 4.04193 3.82355 4.15577C3.90895 4.26962 3.95453 4.40346 3.95453 4.54038C3.95434 4.72393 3.87239 4.89991 3.72668 5.0297C3.58097 5.15949 3.3834 5.23248 3.17733 5.23265ZM14.1503 7.02552V4.22518C14.1451 3.93111 14.0949 3.63905 14.0011 3.35707C13.7612 2.61161 13.2303 1.96698 12.504 1.53936C11.7777 1.11175 10.9038 0.929258 10.0398 1.02479C9.17578 1.12032 8.37851 1.48758 7.79163 2.0604C7.20475 2.63321 6.86687 3.3739 6.83887 4.14898V4.31049L6.83156 4.87707V11.3582H6.82863V11.3849C6.82863 11.7304 6.67457 12.0617 6.40034 12.3059C6.12611 12.5502 5.75418 12.6874 5.36636 12.6874C4.97854 12.6874 4.6066 12.5502 4.33237 12.3059C4.05814 12.0617 3.90408 11.7304 3.90408 11.3849C3.90408 11.3771 3.90627 11.3693 3.90701 11.3608H3.90408V10.0955H2.44181V11.398H2.44327C2.44375 12.0885 2.75218 12.7506 3.30071 13.2386C3.84924 13.7265 4.59293 14.0004 5.36819 14C6.14344 13.9996 6.88674 13.7248 7.43459 13.2362C7.98243 12.7477 8.28993 12.0852 8.28945 11.3947H8.29091V10.7552H8.29457V5.52831L8.30188 4.31049V4.14963C8.32272 3.63695 8.56904 3.15212 8.98769 2.79979C9.40633 2.44746 9.96372 2.25587 10.5396 2.26639C11.1154 2.2769 11.6635 2.48867 12.0656 2.85599C12.4677 3.22331 12.6915 3.71672 12.6887 4.22974V7.0138C12.4087 7.15491 12.1888 7.37436 12.0631 7.63812C11.9374 7.90188 11.9129 8.19521 11.9934 8.47264C12.0739 8.75006 12.255 8.99608 12.5084 9.17253C12.7619 9.34899 13.0736 9.44603 13.3953 9.44861C13.717 9.45119 14.0306 9.35916 14.2876 9.1868C14.5446 9.01443 14.7306 8.77136 14.8167 8.49527C14.9028 8.21918 14.8842 7.9255 14.7639 7.65977C14.6435 7.39403 14.4273 7.1711 14.1503 7.02552Z" fill="#404040" stroke="#404040" stroke-width="0.5"/>
</svg>
